<?xml version="1.0" encoding="utf-8"?>
<!-- Generated by IcoMoon.io -->
<!DOCTYPE svg PUBLIC "-//W3C//DTD SVG 1.1//EN" "http://www.w3.org/Graphics/SVG/1.1/DTD/svg11.dtd">
<svg version="1.1" xmlns="http://www.w3.org/2000/svg" xmlns:xlink="http://www.w3.org/1999/xlink" width="512" height="512" viewBox="0 0 512 512">
<g>
</g>
	<path d="M308.971 311.644c-7.147 0-14.541 2.857-18.411 12.677h-0.297v-56.464h-24.647v161.618h22.938v-13.077h0.297c4.034 10.639 11.766 16.363 19.671 16.763 17.971-0.819 21.504-23.122 21.504-42.517v-39.7c0-18.022-4.782-39.301-21.053-39.301zM305.408 386.745c0 7.342 0.297 19.845-7.588 19.845-6.041 0.205-7.557-11.243-7.557-21.084v-27.044c0-11.018 1.362-19.998 8.018-19.998 7.127 0 7.127 11.858 7.127 18.596v29.686z" fill="#000000" />
	<path d="M216.77 396.985c0 5.939-2.775 9.36-7.127 9.605-4.618 0.399-5.734-4.301-5.99-9.605v-82.084h-24.689v94.157c0 15.524 7.762 24.105 22.006 24.105 7.782 0 14.919-8.96 17.234-17.756h0.256v14.080h22.938v-114.585h-24.627v82.084z" fill="#000000" />
	<path d="M186.788 267.899h-91.023l0.42 23.88h31.6l-0.441 136.325h27.29l0.451-136.325h32.112z" fill="#000000" />
	<path d="M383.099 311.644c-19.056 0.185-33.157 9.8-33.157 39.301v46.623c0 26.204 15.473 35.799 33.157 35.605 21.34-0.399 33.474-13.896 32.215-43.356h-24.443c-0.481 9.615 0.44 20.459-8.724 19.845-5.427-0.399-7.577-5.724-7.577-12.083v-20.060h41.656v-32.697c0.010-24.822-15.943-33.382-33.127-33.178zM391.649 356.024h-17.070v-7.557c0-7.998 1.68-15.339 8.683-15.339 6.339 0 8.387 7.557 8.387 11.684v11.213z" fill="#000000" />
	<path d="M420.024 18.422h-328.059c-40.622 0-73.564 32.912-73.564 73.554v328.069c0 40.622 32.942 73.543 73.564 73.543h328.048c40.642 0 73.575-32.921 73.575-73.543v-328.069c0-40.633-32.932-73.554-73.564-73.554zM303.831 80.66h24.627v82.053c0.338 5.335 1.444 10.025 6.052 9.595 4.332-0.154 7.147-3.645 7.147-9.595v-82.053h24.617v114.585h-22.917v-14.121h-0.276c-2.355 8.816-9.502 17.828-17.234 17.828-14.233 0-22.016-8.601-22.016-24.167v-94.126zM221.911 116.674c0-29.45 13.148-39.281 32.215-39.281 21.698 0 32.246 13.507 32.246 39.281v46.663c-1.27 25.969-13.486 35.614-32.246 35.614-17.654 0-32.215-9.452-32.215-35.614v-46.663zM163.226 41.8l13.568 50.104h0.358l13.906-50.105h27.269l-28.058 88.996v64.451h-27.238v-64.451l-27.433-88.996h27.627zM443.3 423.199c0 26-20.869 47.022-46.623 47.022h-281.385c-25.774 0-46.633-21.022-46.633-47.022v-153.753c0-25.948 20.859-47.001 46.633-47.001h281.385c25.753 0 46.623 21.054 46.623 47.001v153.754z" fill="#000000" />
	<path d="M254.116 175.422c5.1 0 7.158-3.502 7.609-10.025v-51.169c0-7.353-1.915-13.302-7.608-13.302-5.734 0-7.608 5.95-7.608 13.302v51.169c0.502 6.533 2.509 10.025 7.608 10.025z" fill="#000000" />
</svg>
